# xmcd CD database file
#
# Track frame offsets:
#	150
#	16200
#	27850
#	42050
#	53000
#	68950
#	85425
#	97575
#	110350
#	122950
#
# Disc length: 1850 seconds
#
# Revision: 0
# Processed by: cddbd v1.4b42PL1 Copyright (c) Steve Scherf et al.
# Submitted via: CDex 1.40Beta6
#
DISCID=7407380a
DTITLE=Jed Clampit - Gotta' Keep On Movin'
DYEAR=1900
DGENRE=Country
TTITLE0=Gotta' Keep On Movin'
TTITLE1=Leavin' In The Morning
TTITLE2=Whip-Poor-Will
TTITLE3=Fall In Love Again
TTITLE4=Rock Me Sock Me
TTITLE5=Long Lonesome Highway
TTITLE6=Little Boy Don't Cry
TTITLE7=Someone Whistling
TTITLE8=Ready For You
TTITLE9=The Local Girl And The Cowboy
EXTD=
EXTT0=
EXTT1=
EXTT2=
EXTT3=
EXTT4=
EXTT5=
EXTT6=
EXTT7=
EXTT8=
EXTT9=
PLAYORDER=
